<?xml version="1.0" standalone="no"?>
<!DOCTYPE svg PUBLIC "-//W3C//DTD SVG 20010904//EN"
 "http://www.w3.org/TR/2001/REC-SVG-20010904/DTD/svg10.dtd">
<svg version="1.0" xmlns="http://www.w3.org/2000/svg"
 width="273.000000pt" height="273.000000pt" viewBox="0 0 273.000000 273.000000"
 preserveAspectRatio="xMidYMid meet">
<metadata>
Created by potrace 1.14, written by Peter Selinger 2001-2017
</metadata>
<g transform="translate(0.000000,273.000000) scale(0.100000,-0.100000)"
fill="#000000" stroke="none">
<path d="M1249 2306 c-2 -2 -24 -6 -49 -9 -166 -20 -370 -100 -545 -215 -38
-25 -72 -49 -75 -52 -3 -3 -25 -21 -50 -40 -160 -123 -366 -355 -490 -552
l-42 -67 57 -88 c119 -182 313 -402 459 -518 270 -216 544 -325 826 -328 207
-2 355 29 545 117 280 130 580 407 794 733 l53 82 -23 38 c-23 39 -95 146
-116 173 -173 223 -334 379 -518 501 -140 92 -318 172 -445 198 -30 6 -66 14
-80 17 -30 7 -295 16 -301 10z m281 -361 c134 -41 252 -126 328 -237 93 -135
125 -323 84 -484 -113 -435 -646 -594 -978 -292 -59 55 -119 137 -147 203 -57
134 -62 311 -13 440 77 203 245 344 457 384 65 12 206 5 269 -14z"/>
<path d="M1261 1784 c-138 -37 -246 -134 -297 -269 -14 -37 -19 -76 -19 -150
0 -91 3 -106 31 -166 75 -158 217 -251 385 -251 122 -1 212 35 300 122 266
258 94 709 -276 725 -39 2 -94 -3 -124 -11z"/>
</g>
</svg>
